<svg data-v-423bf9ae="" xmlns="http://www.w3.org/2000/svg" viewBox="0 0 578 90" class="iconLeft"><!----><!----><!----><g data-v-423bf9ae="" id="cc2aa20d-4d9c-4f60-825d-f98b55dba2a5" fill="#FFFFFF" transform="matrix(5.495064735412598,0,0,5.495064735412598,109.06926727294922,10.955020904541016)"><path d="M6.12 1.16L5.98 1.30L5.98 1.30Q6.23 1.43 6.36 1.48L6.36 1.48L6.36 1.48Q6.48 1.54 6.57 1.64L6.57 1.64L6.57 1.64Q6.65 1.75 6.73 1.96L6.73 1.96L6.73 1.96Q6.80 2.17 6.97 2.59L6.97 2.59L6.97 2.59Q7.01 2.70 7.06 2.81L7.06 2.81L7.06 2.81Q7.10 2.91 7.13 3.02L7.13 3.02L7.13 3.02Q7.38 3.53 7.50 4.09L7.50 4.09L7.50 4.09Q7.62 4.66 7.63 5.22L7.63 5.22L7.63 5.22Q7.84 5.92 7.90 6.60L7.90 6.60L7.90 6.60Q7.95 7.28 7.70 7.74L7.70 7.74L7.70 7.74Q7.66 7.83 7.56 8.02L7.56 8.02L7.56 8.02Q7.46 8.20 7.34 8.42L7.34 8.42L7.34 8.42Q7.22 8.64 7.08 8.86L7.08 8.86L7.08 8.86Q6.94 9.09 6.82 9.24L6.82 9.24L6.82 9.24Q6.96 9.48 7.06 9.69L7.06 9.69L7.06 9.69Q7.17 9.94 7.26 10.21L7.26 10.21L7.26 10.21Q7.35 10.47 7.48 10.71L7.48 10.71L7.48 10.71Q7.53 10.79 7.55 10.81L7.55 10.81L7.55 10.81Q7.53 10.82 7.52 10.83L7.52 10.83L7.52 10.83Q7.50 10.84 7.49 10.85L7.49 10.85L7.49 10.85Q7.46 10.98 7.35 11.14L7.35 11.14L7.35 11.14Q7.24 11.30 7.10 11.42L7.10 11.42L7.10 11.42Q6.96 11.55 6.82 11.62L6.82 11.62L6.82 11.62Q6.68 11.69 6.59 11.62L6.59 11.62L6.59 11.63L6.59 11.63Q6.58 11.61 6.57 11.60L6.57 11.60L6.57 11.60Q6.57 11.59 6.55 11.56L6.55 11.56L6.55 11.56Q6.40 11.33 6.18 10.93L6.18 10.93L6.18 10.93Q5.96 10.54 5.73 10.08L5.73 10.08L5.73 10.08Q5.57 10.19 5.41 10.29L5.41 10.29L5.41 10.29Q5.25 10.39 5.07 10.43L5.07 10.43L5.07 10.43Q4.91 10.47 4.76 10.49L4.76 10.49L4.76 10.49Q4.61 10.50 4.45 10.50L4.45 10.50L4.45 10.50Q3.84 10.63 3.23 10.61L3.23 10.61L3.23 10.61Q2.63 10.58 2.13 10.40L2.13 10.40L2.13 10.40Q1.76 10.29 1.49 10.00L1.49 10.00L1.49 10.00Q1.22 9.70 1.01 9.39L1.01 9.39L1.01 9.39Q0.88 9.21 0.78 9.04L0.78 9.04L0.78 9.04Q0.67 8.86 0.60 8.67L0.60 8.67L0.60 8.67Q0.31 8.12 0.22 7.48L0.22 7.48L0.22 7.48Q0.13 6.85 0.20 6.17L0.20 6.17L0.20 6.17Q0.28 5.50 0.50 4.84L0.50 4.84L0.50 4.84Q0.73 4.17 1.06 3.57L1.06 3.57L1.06 3.57Q1.25 3.25 1.50 2.97L1.50 2.97L1.50 2.97Q1.75 2.69 1.99 2.39L1.99 2.39L1.99 2.39Q2.13 2.23 2.38 2.01L2.38 2.01L2.38 2.01Q2.63 1.79 2.95 1.58L2.95 1.58L2.95 1.58Q3.26 1.37 3.60 1.20L3.60 1.20L3.60 1.20Q3.95 1.04 4.26 0.97L4.26 0.97L4.26 0.97Q4.59 0.80 4.91 0.75L4.91 0.75L4.91 0.75Q5.24 0.70 5.52 0.83L5.52 0.83L5.52 0.83Q5.67 0.91 5.82 0.99L5.82 0.99L5.82 0.99Q5.96 1.08 6.12 1.16L6.12 1.16ZM6.72 7.50L6.72 7.50L6.72 7.50Q6.75 7.21 6.71 6.68L6.71 6.68L6.71 6.68Q6.66 6.15 6.57 5.52L6.57 5.52L6.57 5.52Q6.30 4.77 5.87 4.11L5.87 4.11L5.87 4.11Q5.43 3.44 4.84 3.04L4.84 3.04L4.84 3.04Q4.65 2.91 4.42 2.85L4.42 2.85L4.42 2.85Q4.19 2.79 3.95 2.72L3.95 2.72L3.95 2.72Q3.63 2.77 3.31 2.90L3.31 2.90L3.31 2.90Q3.00 3.02 2.74 3.14L2.74 3.14L2.74 3.14Q2.34 3.33 2.05 3.67L2.05 3.67L2.05 3.67Q1.76 4.02 1.57 4.45L1.57 4.45L1.57 4.45Q1.54 4.83 1.56 5.21L1.56 5.21L1.56 5.21Q1.58 5.60 1.60 5.89L1.60 5.89L1.60 5.89Q1.61 6.30 1.62 6.68L1.62 6.68L1.62 6.68Q1.62 7.06 1.67 7.39L1.67 7.39L1.67 7.39Q1.71 7.73 1.81 8.03L1.81 8.03L1.81 8.03Q1.92 8.33 2.11 8.60L2.11 8.60L2.11 8.60Q2.44 8.88 2.84 9.09L2.84 9.09L2.84 9.09Q3.25 9.31 3.78 9.45L3.78 9.45L3.78 9.45Q4.12 9.55 4.58 9.53L4.58 9.53L4.58 9.53Q5.04 9.52 5.40 9.45L5.40 9.45L5.40 9.45Q5.22 9.06 5.06 8.67L5.06 8.67L5.06 8.67Q4.90 8.29 4.79 7.93L4.79 7.93L4.79 7.93Q4.68 7.57 4.62 7.28L4.62 7.28L4.62 7.28Q4.56 6.99 4.61 6.78L4.61 6.78L4.61 6.78Q4.65 6.66 4.75 6.52L4.75 6.52L4.75 6.52Q4.84 6.37 4.96 6.24L4.96 6.24L4.96 6.24Q5.08 6.12 5.22 6.04L5.22 6.04L5.22 6.04Q5.36 5.96 5.50 5.99L5.50 5.99L5.50 5.99Q5.60 6.03 5.62 6.12L5.62 6.12L5.62 6.12Q5.64 6.20 5.64 6.29L5.64 6.29L5.64 6.29Q5.64 6.36 5.64 6.41L5.64 6.41L5.64 6.41Q5.64 6.47 5.70 6.45L5.70 6.45L5.70 6.45Q5.75 7.08 5.99 7.62L5.99 7.62L5.99 7.62Q6.22 8.15 6.51 8.67L6.51 8.67L6.51 8.67Q6.61 8.39 6.65 8.07L6.65 8.07L6.65 8.07Q6.69 7.76 6.72 7.50ZM3.71 1.85L3.71 1.85L3.71 1.85Q3.39 1.99 3.09 2.21L3.09 2.21L3.09 2.21Q2.80 2.44 2.53 2.70L2.53 2.70L2.53 2.70Q2.59 2.67 2.63 2.63L2.63 2.63L2.63 2.63Q2.67 2.59 2.73 2.56L2.73 2.56L2.73 2.56Q3.01 2.37 3.46 2.16L3.46 2.16L3.46 2.16Q3.92 1.96 4.41 1.85L4.41 1.85L4.54 1.71L4.54 1.71Q4.26 1.67 3.96 1.75L3.96 1.75L3.89 1.83L3.89 1.83Q3.78 1.83 3.71 1.85ZM12.60 6.72L12.71 6.61L12.71 6.61Q12.68 6.34 12.61 6.03L12.61 6.03L12.61 6.03Q12.54 5.71 12.60 5.45L12.60 5.45L12.60 5.42L12.61 5.40L12.61 5.40Q12.61 5.38 12.63 5.36L12.63 5.36L12.63 5.36Q12.67 5.25 12.77 5.11L12.77 5.11L12.77 5.11Q12.87 4.97 12.98 4.84L12.98 4.84L12.98 4.84Q13.10 4.72 13.24 4.64L13.24 4.64L13.24 4.64Q13.38 4.56 13.52 4.59L13.52 4.59L13.52 4.59Q13.61 4.79 13.66 5.00L13.66 5.00L13.66 5.00Q13.72 5.21 13.76 5.43L13.76 5.43L13.76 5.43Q13.83 5.39 13.89 5.39L13.89 5.39L13.89 5.39Q13.96 5.39 13.99 5.46L13.99 5.46L14 5.45L14 5.45Q14 5.46 13.99 5.46L13.99 5.46L13.99 5.46Q13.99 5.46 13.99 5.47L13.99 5.47L14 5.49L14 5.49Q14.03 5.85 14.01 6.21L14.01 6.21L14.01 6.21Q14 6.57 14 6.93L14 6.93L14 6.93Q14.11 7.74 14.18 8.54L14.18 8.54L14.18 8.54Q14.24 9.34 14.13 10.15L14.13 10.15L14.13 10.16L14.13 10.18L14.13 10.18Q14.11 10.18 14.11 10.19L14.11 10.19L14.11 10.19Q14.07 10.29 13.96 10.45L13.96 10.45L13.96 10.45Q13.85 10.61 13.71 10.75L13.71 10.75L13.71 10.75Q13.57 10.89 13.43 10.96L13.43 10.96L13.43 10.96Q13.29 11.03 13.20 10.95L13.20 10.95L13.20 10.95Q13.17 10.79 13.17 10.65L13.17 10.65L13.17 10.65Q13.16 10.51 13.15 10.37L13.15 10.37L13.15 10.37Q13.12 10.37 13.10 10.38L13.10 10.38L13.10 10.38Q13.09 10.39 13.08 10.39L13.08 10.39L13.06 10.40L13.06 10.40Q12.92 10.37 12.87 10.36L12.87 10.36L12.87 10.36Q12.71 10.47 12.61 10.50L12.61 10.50L12.61 10.50Q12.50 10.53 12.53 10.35L12.53 10.35L12.53 10.33L12.53 10.33Q12.40 10.35 12.02 10.41L12.02 10.41L12.02 10.41Q11.63 10.47 11.17 10.53L11.17 10.53L11.17 10.53Q10.71 10.58 10.28 10.60L10.28 10.60L10.28 10.60Q9.84 10.61 9.65 10.54L9.65 10.54L9.65 10.54Q9.58 10.56 9.49 10.56L9.49 10.56L9.49 10.56Q9.41 10.57 9.34 10.57L9.34 10.57L9.34 10.57Q9.28 10.51 9.31 10.43L9.31 10.43L9.31 10.43Q9.32 10.40 9.33 10.37L9.33 10.37L9.33 10.37Q9.34 10.35 9.35 10.32L9.35 10.32L9.35 10.32Q9.14 10.26 9.02 10.08L9.02 10.08L9.02 10.08Q8.89 9.90 8.81 9.68L8.81 9.68L8.81 9.68Q8.72 9.46 8.69 9.23L8.69 9.23L8.69 9.23Q8.65 9.00 8.64 8.83L8.64 8.83L8.64 8.83Q8.55 8.06 8.64 7.28L8.64 7.28L8.64 7.28Q8.57 6.92 8.54 6.55L8.54 6.55L8.54 6.55Q8.51 6.19 8.54 5.80L8.54 5.80L8.54 5.78L8.54 5.78Q8.54 5.75 8.55 5.74L8.55 5.74L8.55 5.74Q8.55 5.73 8.55 5.70L8.55 5.70L8.55 5.70Q8.60 5.59 8.69 5.45L8.69 5.45L8.69 5.45Q8.78 5.31 8.90 5.18L8.90 5.18L8.90 5.18Q9.02 5.05 9.15 4.98L9.15 4.98L9.15 4.98Q9.28 4.90 9.42 4.91L9.42 4.91L9.42 4.91Q9.66 4.63 10.01 4.49L10.01 4.49L10.01 4.49Q10.08 4.47 10.13 4.46L10.13 4.46L10.13 4.46Q10.18 4.45 10.21 4.55L10.21 4.55L10.21 4.55Q10.22 4.68 10.18 4.82L10.18 4.82L10.18 4.82Q10.15 4.97 10.11 5.12L10.11 5.12L10.11 5.12Q10.28 4.98 10.40 4.96L10.40 4.96L10.40 4.96Q10.53 4.93 10.47 5.17L10.47 5.17L10.47 5.17Q10.35 5.52 10.31 5.94L10.31 5.94L10.31 5.94Q10.28 6.37 10.30 6.82L10.30 6.82L10.30 6.82Q10.33 7.28 10.40 7.72L10.40 7.72L10.40 7.72Q10.47 8.16 10.54 8.54L10.54 8.54L10.54 8.54Q10.54 8.54 10.57 8.63L10.57 8.63L10.57 8.63Q10.60 8.72 10.65 8.85L10.65 8.85L10.65 8.85Q10.70 8.97 10.75 9.12L10.75 9.12L10.75 9.12Q10.81 9.27 10.86 9.39L10.86 9.39L10.86 9.39Q11.31 9.34 11.79 9.35L11.79 9.35L11.79 9.35Q12.28 9.35 12.68 9.32L12.68 9.32L12.68 9.32Q12.75 9.02 12.80 8.71L12.80 8.71L12.80 8.71Q12.85 8.41 12.87 8.11L12.87 8.11L12.87 8.11Q12.84 7.88 12.82 7.67L12.82 7.67L12.82 7.67Q12.81 7.45 12.78 7.25L12.78 7.25L12.78 7.25Q12.75 7.13 12.71 6.99L12.71 6.99L12.71 6.99Q12.67 6.86 12.60 6.72L12.60 6.72ZM15.46 6.82L15.46 6.82L15.46 6.82Q15.65 6.48 15.91 6.17L15.91 6.17L15.91 6.17Q16.17 5.87 16.47 5.62L16.47 5.62L16.47 5.62Q16.77 5.38 17.11 5.21L17.11 5.21L17.11 5.21Q17.44 5.05 17.78 5.00L17.78 5.00L17.78 5.00Q18.17 4.73 18.61 4.55L18.61 4.55L18.61 4.55Q19.05 4.37 19.36 4.52L19.36 4.52L19.36 4.52Q19.75 4.75 19.98 5.05L19.98 5.05L19.98 5.05Q20.13 5.10 20.26 5.18L20.26 5.18L20.26 5.18Q20.30 5.22 20.34 5.26L20.34 5.26L20.34 5.26Q20.38 5.31 20.43 5.36L20.43 5.36L20.43 5.36Q20.58 5.22 20.71 5.17L20.71 5.17L20.71 5.17Q20.83 5.11 20.86 5.25L20.86 5.25L20.86 5.25Q20.92 5.66 20.93 6.05L20.93 6.05L20.93 6.05Q20.94 6.45 20.93 6.86L20.93 6.86L20.93 6.86Q20.94 6.92 20.95 6.96L20.95 6.96L20.95 6.96Q20.96 7 20.96 7.04L20.96 7.04L20.96 7.04Q20.96 7.31 20.99 7.60L20.99 7.60L20.99 7.60Q21.03 7.90 20.90 8.12L20.90 8.12L20.90 8.12Q20.90 8.19 20.89 8.27L20.89 8.27L20.89 8.27Q20.89 8.34 20.89 8.41L20.89 8.41L20.89 8.41Q20.96 8.95 20.97 9.39L20.97 9.39L20.97 9.39Q21 9.53 21.02 9.67L21.02 9.67L21.02 9.67Q21.04 9.80 21.06 9.93L21.06 9.93L21.06 9.93Q21.07 10.01 21.13 10.08L21.13 10.08L21.07 10.14L21.07 10.14Q21.07 10.39 21.01 10.62L21.01 10.62L21.01 10.62Q20.96 10.85 20.79 11.06L20.79 11.06L20.79 11.06Q20.75 11.10 20.66 11.19L20.66 11.19L20.66 11.19Q20.57 11.28 20.46 11.37L20.46 11.37L20.46 11.37Q20.36 11.45 20.26 11.49L20.26 11.49L20.26 11.49Q20.16 11.52 20.09 11.45L20.09 11.45L20.09 11.45Q20.08 11.44 20.08 11.42L20.08 11.42L20.08 11.42Q20.08 11.42 20.06 11.41L20.06 11.41L20.06 11.41Q20.05 11.41 20.03 11.42L20.03 11.42L19.99 11.42L19.99 11.42Q19.89 11.42 19.87 11.40L19.87 11.40L19.87 11.40Q19.80 11.19 19.80 10.91L19.80 10.91L19.80 10.91Q19.80 10.64 19.77 10.44L19.77 10.44L19.77 10.44Q19.74 10.23 19.72 10.02L19.72 10.02L19.72 10.02Q19.70 9.81 19.67 9.59L19.67 9.59L19.67 9.59Q19.31 9.83 18.87 10.00L18.87 10.00L18.87 10.00Q18.44 10.16 17.95 10.30L17.95 10.30L17.95 10.30Q17.86 10.33 17.79 10.35L17.79 10.35L17.79 10.35Q17.71 10.37 17.63 10.40L17.63 10.40L17.63 10.40Q17.42 10.51 17.20 10.61L17.20 10.61L17.20 10.61Q16.98 10.70 16.77 10.74L16.77 10.74L16.77 10.74Q16.55 10.78 16.34 10.75L16.34 10.75L16.34 10.75Q16.13 10.72 15.92 10.57L15.92 10.57L15.92 10.57Q15.54 10.30 15.23 9.93L15.23 9.93L15.23 9.93Q14.92 9.56 14.77 9.13L14.77 9.13L14.77 9.13Q14.71 8.99 14.73 8.82L14.73 8.82L14.73 8.82Q14.74 8.65 14.80 8.47L14.80 8.47L14.80 8.47Q14.71 8.13 14.77 7.92L14.77 7.92L14.77 7.92Q14.85 7.62 15.04 7.34L15.04 7.34L15.04 7.34Q15.22 7.07 15.46 6.82ZM16.98 9.21L16.98 9.21L16.98 9.21Q17.15 9.24 17.47 9.21L17.47 9.21L17.47 9.21Q17.79 9.17 18.17 9.07L18.17 9.07L18.17 9.07Q18.55 8.97 18.93 8.82L18.93 8.82L18.93 8.82Q19.31 8.67 19.57 8.47L19.57 8.47L19.57 8.47Q19.54 8.15 19.52 7.81L19.52 7.81L19.52 7.81Q19.50 7.48 19.47 7.14L19.47 7.14L19.47 7.14Q19.46 7.03 19.46 6.92L19.46 6.92L19.46 6.92Q19.46 6.79 19.45 6.68L19.45 6.68L19.39 6.72L19.39 6.72Q19.38 6.65 19.38 6.57L19.38 6.57L19.38 6.57Q19.38 6.48 19.38 6.41L19.38 6.41L19.38 6.41Q19.35 6.34 19.31 6.28L19.31 6.28L19.31 6.28Q19.28 6.22 19.25 6.15L19.25 6.15L19.12 6.26L19.12 6.26Q19.08 6.19 19.08 6.10L19.08 6.10L19.08 6.10Q19.08 6.01 19.05 5.94L19.05 5.94L19.05 5.94Q18.80 5.85 18.58 5.80L18.58 5.80L18.58 5.80Q18.35 5.75 18.14 5.74L18.14 5.74L18.14 5.74Q17.95 5.74 17.76 5.77L17.76 5.77L17.76 5.77Q17.57 5.80 17.37 5.84L17.37 5.84L17.37 5.84Q16.81 6.06 16.27 6.82L16.27 6.82L16.27 6.82Q16.07 7.06 15.89 7.39L15.89 7.39L15.89 7.39Q15.86 7.81 15.97 8.22L15.97 8.22L15.97 8.22Q16.06 8.34 16.16 8.51L16.16 8.51L16.16 8.51Q16.27 8.68 16.39 8.83L16.39 8.83L16.39 8.83Q16.52 8.97 16.67 9.09L16.67 9.09L16.67 9.09Q16.81 9.20 16.98 9.21ZM25.27 5.71L25.27 5.71L25.27 5.71Q24.85 5.71 24.40 5.94L24.40 5.94L24.40 5.94Q23.95 6.17 23.58 6.40L23.58 6.40L23.58 6.40Q23.58 7.18 23.65 7.95L23.65 7.95L23.65 7.95Q23.73 8.71 23.98 9.45L23.98 9.45L24.01 9.42L24.01 9.42Q24.01 9.49 24.02 9.53L24.02 9.53L24.02 9.53Q24.02 9.56 24.04 9.60L24.04 9.60L24.04 9.60Q24.07 9.63 24.07 9.67L24.07 9.67L24.07 9.67Q24.08 9.69 24.08 9.70L24.08 9.70L24.08 9.70Q24.08 9.70 24.09 9.72L24.09 9.72L24.09 9.72Q24.12 9.81 24.02 9.99L24.02 9.99L24.02 9.99Q23.91 10.16 23.76 10.31L23.76 10.31L23.76 10.31Q23.62 10.46 23.46 10.55L23.46 10.55L23.46 10.55Q23.30 10.64 23.21 10.60L23.21 10.60L23.20 10.61L23.20 10.61Q23.20 10.60 23.18 10.60L23.18 10.60L23.18 10.60Q23.18 10.60 23.18 10.58L23.18 10.58L23.18 10.58Q23.04 10.29 22.93 9.93L22.93 9.93L22.93 9.93Q22.86 10.02 22.76 10.14L22.76 10.14L22.76 10.14Q22.67 10.25 22.57 10.32L22.57 10.32L22.57 10.32Q22.47 10.40 22.38 10.44L22.38 10.44L22.38 10.44Q22.29 10.47 22.22 10.44L22.22 10.44L22.19 10.47L22.19 10.47Q22.18 10.43 22.18 10.33L22.18 10.33L22.18 10.33Q22.08 9.70 22.01 8.99L22.01 8.99L22.01 8.99Q21.94 8.29 21.92 7.56L21.92 7.56L21.92 7.56Q21.91 6.83 21.95 6.12L21.95 6.12L21.95 6.12Q21.99 5.40 22.09 4.77L22.09 4.77L22.09 4.66L22.09 4.66Q22.09 4.66 22.12 4.65L22.12 4.65L22.12 4.65Q22.16 4.56 22.30 4.39L22.30 4.39L22.30 4.39Q22.44 4.21 22.59 4.08L22.59 4.08L22.59 4.08Q22.74 3.95 22.86 3.89L22.86 3.89L22.86 3.89Q22.99 3.84 23.02 3.98L23.02 3.98L23.02 3.98Q23.02 4.21 23.01 4.45L23.01 4.45L23.01 4.45Q23.00 4.68 22.99 4.91L22.99 4.91L22.99 4.91Q23.13 4.76 23.30 4.64L23.30 4.64L23.30 4.64Q23.46 4.52 23.65 4.55L23.65 4.55L23.65 4.55Q23.70 4.80 23.67 5.09L23.67 5.09L23.67 5.09Q23.63 5.38 23.60 5.66L23.60 5.66L23.60 5.66Q23.88 5.40 24.20 5.17L24.20 5.17L24.20 5.17Q24.51 4.94 24.86 4.77L24.86 4.77L24.86 4.77Q25.21 4.59 25.58 4.49L25.58 4.49L25.58 4.49Q25.94 4.40 26.31 4.41L26.31 4.41L26.31 4.41Q26.42 4.41 26.55 4.42L26.55 4.42L26.55 4.42Q26.68 4.42 26.80 4.49L26.80 4.49L26.80 4.49Q27.08 4.70 27.18 5.05L27.18 5.05L27.18 5.05Q27.29 5.39 27.33 5.71L27.33 5.71L27.33 5.71Q27.40 6.17 27.44 6.64L27.44 6.64L27.44 6.64Q27.48 7.11 27.50 7.57L27.50 7.57L27.50 7.57Q27.50 7.78 27.47 8.03L27.47 8.03L27.47 8.03Q27.44 8.27 27.47 8.47L27.47 8.47L27.47 8.47Q27.50 8.74 27.56 9.02L27.56 9.02L27.56 9.02Q27.62 9.30 27.58 9.56L27.58 9.56L27.58 9.56Q27.44 9.67 27.31 9.77L27.31 9.77L27.31 9.77Q27.19 9.86 27.06 9.97L27.06 9.97L27.06 9.97Q26.98 10.08 26.87 10.19L26.87 10.19L26.87 10.19Q26.77 10.30 26.67 10.37L26.67 10.37L26.67 10.37Q26.57 10.44 26.48 10.46L26.48 10.46L26.48 10.46Q26.39 10.49 26.33 10.43L26.33 10.43L26.33 10.43Q26.32 10.40 26.32 10.33L26.32 10.33L26.33 10.32L26.33 10.32Q26.33 10.25 26.34 10.19L26.34 10.19L26.34 10.19Q26.35 10.14 26.36 10.07L26.36 10.07L26.36 10.07Q26.25 10.18 26.13 10.22L26.13 10.22L26.13 10.22Q26.01 10.26 25.94 10.18L25.94 10.18L25.94 10.18Q25.93 10.16 25.93 10.12L25.93 10.12L25.96 10.09L25.96 10.09Q25.90 10.11 25.91 10.05L25.91 10.05L25.91 10.05Q25.91 10.00 25.95 9.92L25.95 9.92L25.95 9.92Q25.98 9.84 26.03 9.76L26.03 9.76L26.03 9.76Q26.07 9.67 26.08 9.62L26.08 9.62L26.08 9.62Q26.12 9.42 26.19 9.21L26.19 9.21L26.19 9.21Q26.25 9.00 26.29 8.81L26.29 8.81L26.29 8.81Q26.39 8.27 26.30 7.70L26.30 7.70L26.30 7.70Q26.21 7.13 26.01 6.62L26.01 6.62L26.01 6.62Q25.86 6.26 25.68 6.04L25.68 6.04L25.68 6.04Q25.49 5.82 25.27 5.71ZM32.33 4.14L32.33 4.14L32.33 4.14Q32.33 4.23 32.33 4.30L32.33 4.30L32.33 4.30Q32.34 4.38 32.34 4.47L32.34 4.47L32.34 4.47Q32.37 4.63 32.38 4.81L32.38 4.81L32.38 4.81Q32.40 4.98 32.42 5.15L32.42 5.15L32.42 5.15Q32.66 5.12 32.89 5.11L32.89 5.11L32.89 5.11Q33.12 5.10 33.36 5.11L33.36 5.11L33.36 5.11Q33.47 5.10 33.56 5.10L33.56 5.10L33.56 5.10Q33.66 5.10 33.77 5.08L33.77 5.08L33.73 5.12L33.73 5.12Q33.85 5.14 33.98 5.14L33.98 5.14L33.98 5.14Q34.10 5.15 34.23 5.18L34.23 5.18L34.31 5.18L34.29 5.21L34.30 5.21L34.31 5.21L34.31 5.21Q34.45 5.25 34.38 5.38L34.38 5.38L34.38 5.38Q34.31 5.52 34.16 5.67L34.16 5.67L34.16 5.67Q34.01 5.82 33.84 5.96L33.84 5.96L33.84 5.96Q33.67 6.09 33.60 6.12L33.60 6.12L33.60 6.12Q33.59 6.12 33.57 6.13L33.57 6.13L33.57 6.13Q33.56 6.13 33.54 6.13L33.54 6.13L33.47 6.13L33.47 6.13Q33.33 6.15 33.21 6.15L33.21 6.15L33.21 6.15Q33.08 6.16 32.96 6.16L32.96 6.16L32.96 6.16Q32.84 6.17 32.75 6.18L32.75 6.18L32.75 6.18Q32.65 6.19 32.55 6.20L32.55 6.20L32.55 6.20Q32.59 6.64 32.62 7.06L32.62 7.06L32.62 7.06Q32.65 7.49 32.63 7.91L32.63 7.91L32.63 7.91Q32.62 8.25 32.61 8.68L32.61 8.68L32.61 8.68Q32.61 9.11 32.61 9.52L32.61 9.52L32.61 9.52Q32.63 9.74 32.65 9.96L32.65 9.96L32.65 9.96Q32.66 10.18 32.66 10.39L32.66 10.39L32.66 10.39Q32.65 10.47 32.54 10.63L32.54 10.63L32.54 10.63Q32.42 10.79 32.28 10.94L32.28 10.94L32.28 10.94Q32.14 11.09 32.00 11.18L32.00 11.18L32.00 11.18Q31.85 11.27 31.75 11.20L31.75 11.20L31.75 11.20Q31.75 11.20 31.74 11.21L31.74 11.21L31.74 11.19L31.74 11.19Q31.72 11.12 31.72 11.07L31.72 11.07L31.72 11.07Q31.71 11.02 31.70 10.96L31.70 10.96L31.70 10.96Q31.61 11.06 31.52 11.15L31.52 11.15L31.52 11.15Q31.43 11.24 31.34 11.30L31.34 11.30L31.34 11.30Q31.25 11.35 31.17 11.38L31.17 11.38L31.17 11.38Q31.09 11.40 31.04 11.34L31.04 11.34L31.04 11.34Q30.87 10.89 30.86 10.41L30.86 10.41L30.86 10.41Q30.86 9.93 30.84 9.45L30.84 9.45L30.84 9.45Q30.80 8.69 30.78 7.96L30.78 7.96L30.78 7.96Q30.76 7.22 30.77 6.47L30.77 6.47L30.77 6.47Q30.66 6.50 30.57 6.51L30.57 6.51L30.57 6.51Q30.48 6.52 30.37 6.54L30.37 6.54L30.35 6.54L30.10 6.83L30.10 6.83Q29.82 6.83 29.53 6.86L29.53 6.86L29.53 6.86Q29.23 6.89 28.97 6.82L28.97 6.82L28.97 6.82Q28.90 6.76 28.94 6.62L28.94 6.62L28.94 6.62Q28.92 6.62 28.92 6.62L28.92 6.62L28.92 6.62Q28.92 6.61 28.94 6.61L28.94 6.61L28.94 6.61Q28.90 6.58 28.90 6.55L28.90 6.55L28.90 6.55Q28.87 6.55 28.85 6.57L28.85 6.57L28.85 6.57Q28.84 6.58 28.81 6.58L28.81 6.58L28.81 6.58Q28.71 6.59 28.69 6.57L28.69 6.57L28.69 6.57Q28.67 6.55 28.69 6.45L28.69 6.45L28.69 6.45Q28.80 6.01 29.09 5.83L29.09 5.83L29.09 5.83Q29.39 5.66 29.75 5.59L29.75 5.59L29.75 5.59Q30.00 5.50 30.26 5.43L30.26 5.43L30.26 5.43Q30.52 5.36 30.79 5.31L30.79 5.31L30.79 5.31Q30.79 5.12 30.79 4.96L30.79 4.96L30.79 4.96Q30.79 4.77 30.81 4.61L30.81 4.61L30.81 4.61Q30.83 4.49 30.95 4.30L30.95 4.30L30.95 4.30Q31.08 4.12 31.25 3.96L31.25 3.96L31.25 3.96Q31.32 3.70 31.58 3.48L31.58 3.48L31.58 3.48Q31.84 3.26 32.07 3.19L32.07 3.19L32.07 3.19Q32.17 3.21 32.22 3.30L32.22 3.30L32.22 3.30Q32.27 3.39 32.29 3.52L32.29 3.52L32.29 3.52Q32.31 3.65 32.31 3.79L32.31 3.79L32.31 3.79Q32.31 3.93 32.31 4.06L32.31 4.06L32.31 4.06Q32.33 4.09 32.33 4.14ZM39.42 6.72L39.54 6.61L39.54 6.61Q39.51 6.34 39.44 6.03L39.44 6.03L39.44 6.03Q39.37 5.71 39.42 5.45L39.42 5.45L39.42 5.42L39.44 5.40L39.44 5.40Q39.44 5.38 39.45 5.36L39.45 5.36L39.45 5.36Q39.49 5.25 39.59 5.11L39.59 5.11L39.59 5.11Q39.69 4.97 39.81 4.84L39.81 4.84L39.81 4.84Q39.93 4.72 40.07 4.64L40.07 4.64L40.07 4.64Q40.21 4.56 40.35 4.59L40.35 4.59L40.35 4.59Q40.43 4.79 40.49 5.00L40.49 5.00L40.49 5.00Q40.54 5.21 40.59 5.43L40.59 5.43L40.59 5.43Q40.66 5.39 40.71 5.39L40.71 5.39L40.71 5.39Q40.78 5.39 40.81 5.46L40.81 5.46L40.82 5.45L40.82 5.45Q40.82 5.46 40.81 5.46L40.81 5.46L40.81 5.46Q40.81 5.46 40.81 5.47L40.81 5.47L40.82 5.49L40.82 5.49Q40.85 5.85 40.84 6.21L40.84 6.21L40.84 6.21Q40.82 6.57 40.82 6.93L40.82 6.93L40.82 6.93Q40.94 7.74 41.00 8.54L41.00 8.54L41.00 8.54Q41.06 9.34 40.95 10.15L40.95 10.15L40.95 10.16L40.95 10.18L40.95 10.18Q40.94 10.18 40.94 10.19L40.94 10.19L40.94 10.19Q40.89 10.29 40.78 10.45L40.78 10.45L40.78 10.45Q40.67 10.61 40.53 10.75L40.53 10.75L40.53 10.75Q40.39 10.89 40.25 10.96L40.25 10.96L40.25 10.96Q40.11 11.03 40.03 10.95L40.03 10.95L40.03 10.95Q40.00 10.79 39.99 10.65L39.99 10.65L39.99 10.65Q39.98 10.51 39.97 10.37L39.97 10.37L39.97 10.37Q39.94 10.37 39.93 10.38L39.93 10.38L39.93 10.38Q39.91 10.39 39.90 10.39L39.90 10.39L39.89 10.40L39.89 10.40Q39.75 10.37 39.69 10.36L39.69 10.36L39.69 10.36Q39.54 10.47 39.43 10.50L39.43 10.50L39.43 10.50Q39.33 10.53 39.35 10.35L39.35 10.35L39.35 10.33L39.35 10.33Q39.23 10.35 38.84 10.41L38.84 10.41L38.84 10.41Q38.46 10.47 38.00 10.53L38.00 10.53L38.00 10.53Q37.53 10.58 37.10 10.60L37.10 10.60L37.10 10.60Q36.67 10.61 36.47 10.54L36.47 10.54L36.47 10.54Q36.40 10.56 36.32 10.56L36.32 10.56L36.32 10.56Q36.23 10.57 36.16 10.57L36.16 10.57L36.16 10.57Q36.11 10.51 36.13 10.43L36.13 10.43L36.13 10.43Q36.15 10.40 36.15 10.37L36.15 10.37L36.15 10.37Q36.16 10.35 36.18 10.32L36.18 10.32L36.18 10.32Q35.97 10.26 35.84 10.08L35.84 10.08L35.84 10.08Q35.71 9.90 35.63 9.68L35.63 9.68L35.63 9.68Q35.55 9.46 35.51 9.23L35.51 9.23L35.51 9.23Q35.48 9.00 35.46 8.83L35.46 8.83L35.46 8.83Q35.38 8.06 35.46 7.28L35.46 7.28L35.46 7.28Q35.39 6.92 35.36 6.55L35.36 6.55L35.36 6.55Q35.34 6.19 35.36 5.80L35.36 5.80L35.36 5.78L35.36 5.78Q35.36 5.75 35.37 5.74L35.37 5.74L35.37 5.74Q35.38 5.73 35.38 5.70L35.38 5.70L35.38 5.70Q35.42 5.59 35.51 5.45L35.51 5.45L35.51 5.45Q35.60 5.31 35.72 5.18L35.72 5.18L35.72 5.18Q35.84 5.05 35.97 4.98L35.97 4.98L35.97 4.98Q36.11 4.90 36.25 4.91L36.25 4.91L36.25 4.91Q36.48 4.63 36.83 4.49L36.83 4.49L36.83 4.49Q36.90 4.47 36.95 4.46L36.95 4.46L36.95 4.46Q37.00 4.45 37.03 4.55L37.03 4.55L37.03 4.55Q37.04 4.68 37.01 4.82L37.01 4.82L37.01 4.82Q36.97 4.97 36.93 5.12L36.93 5.12L36.93 5.12Q37.10 4.98 37.23 4.96L37.23 4.96L37.23 4.96Q37.35 4.93 37.30 5.17L37.30 5.17L37.30 5.17Q37.17 5.52 37.13 5.94L37.13 5.94L37.13 5.94Q37.10 6.37 37.13 6.82L37.13 6.82L37.13 6.82Q37.16 7.28 37.23 7.72L37.23 7.72L37.23 7.72Q37.30 8.16 37.37 8.54L37.37 8.54L37.37 8.54Q37.37 8.54 37.39 8.63L37.39 8.63L37.39 8.63Q37.42 8.72 37.47 8.85L37.47 8.85L37.47 8.85Q37.52 8.97 37.58 9.12L37.58 9.12L37.58 9.12Q37.63 9.27 37.69 9.39L37.69 9.39L37.69 9.39Q38.14 9.34 38.62 9.35L38.62 9.35L38.62 9.35Q39.10 9.35 39.51 9.32L39.51 9.32L39.51 9.32Q39.58 9.02 39.63 8.71L39.63 8.71L39.63 8.71Q39.68 8.41 39.69 8.11L39.69 8.11L39.69 8.11Q39.66 7.88 39.65 7.67L39.65 7.67L39.65 7.67Q39.63 7.45 39.61 7.25L39.61 7.25L39.61 7.25Q39.58 7.13 39.54 6.99L39.54 6.99L39.54 6.99Q39.49 6.86 39.42 6.72L39.42 6.72ZM41.89 5.24L42.80 4.54L42.80 4.54Q42.78 4.56 42.78 4.61L42.78 4.61L42.78 4.61Q42.78 4.63 42.77 4.66L42.77 4.66L42.77 4.66Q42.90 4.52 43.05 4.43L43.05 4.43L43.05 4.43Q43.20 4.34 43.36 4.37L43.36 4.37L43.36 4.37Q43.44 4.45 43.43 4.62L43.43 4.62L43.43 4.62Q43.43 4.79 43.39 4.99L43.39 4.99L43.39 4.99Q43.34 5.19 43.29 5.39L43.29 5.39L43.29 5.39Q43.23 5.59 43.20 5.73L43.20 5.73L43.20 5.73Q43.22 5.70 43.27 5.64L43.27 5.64L43.27 5.64Q43.44 5.45 43.60 5.28L43.60 5.28L43.60 5.28Q43.76 5.11 43.96 4.96L43.96 4.96L43.96 4.96Q44.58 4.51 44.93 4.47L44.93 4.47L44.93 4.47Q45.29 4.42 45.49 4.75L45.49 4.75L45.49 4.75Q45.72 4.69 45.90 4.68L45.90 4.68L45.90 4.68Q46.07 4.66 46.13 4.73L46.13 4.73L46.13 4.73Q46.38 5.05 46.49 5.49L46.49 5.49L46.49 5.49Q46.82 5.32 47.21 5.14L47.21 5.14L47.21 5.14Q47.60 4.96 48.02 4.83L48.02 4.83L48.02 4.83Q48.44 4.70 48.85 4.68L48.85 4.68L48.85 4.68Q49.27 4.66 49.63 4.83L49.63 4.83L49.63 4.86L49.63 4.86Q49.70 4.89 49.66 5.07L49.66 5.07L49.66 5.07Q49.52 5.50 49.50 5.96L49.50 5.96L49.50 5.96Q49.48 6.41 49.50 6.87L49.50 6.87L49.50 6.87Q49.52 7.32 49.53 7.78L49.53 7.78L49.53 7.78Q49.55 8.25 49.48 8.69L49.48 8.69L49.48 8.69Q49.45 8.86 49.44 8.97L49.44 8.97L49.44 8.97Q49.43 9.07 49.41 9.15L49.41 9.15L49.41 9.15Q49.39 9.23 49.36 9.30L49.36 9.30L49.36 9.30Q49.32 9.38 49.24 9.49L49.24 9.49L49.24 9.49Q49.20 9.56 49.06 9.68L49.06 9.68L49.06 9.68Q48.93 9.80 48.82 9.90L48.82 9.90L48.82 9.88L48.82 9.90L48.82 9.90Q48.82 9.91 48.81 9.92L48.81 9.92L48.81 9.92Q48.80 9.93 48.80 9.94L48.80 9.94L48.80 9.94Q48.73 10.00 48.71 10.00L48.71 10.00L48.71 10.00Q48.78 9.94 48.80 9.90L48.80 9.90L48.71 10.00L48.71 10.00Q48.64 10.07 48.54 10.15L48.54 10.15L48.54 10.15Q48.45 10.23 48.38 10.29L48.38 10.29L48.38 10.29Q48.31 10.35 48.29 10.37L48.29 10.37L48.29 10.37Q48.27 10.39 48.34 10.35L48.34 10.35L48.34 10.35Q48.27 10.42 48.15 10.47L48.15 10.47L48.15 10.47Q48.03 10.53 47.96 10.46L47.96 10.46L47.96 10.46Q47.96 10.32 47.97 9.95L47.97 9.95L47.97 9.95Q47.98 9.59 48.01 9.12L48.01 9.12L48.01 9.12Q48.05 8.65 48.09 8.13L48.09 8.13L48.09 8.13Q48.13 7.60 48.19 7.13L48.19 7.13L48.19 7.13Q48.26 6.65 48.34 6.28L48.34 6.28L48.34 6.28Q48.43 5.91 48.51 5.74L48.51 5.74L48.45 5.74L48.45 5.74Q48.15 5.77 47.85 5.85L47.85 5.85L47.85 5.85Q47.56 5.94 47.28 6.01L47.28 6.01L47.28 6.01Q47.18 6.03 46.98 6.10L46.98 6.10L46.98 6.10Q46.79 6.16 46.61 6.23L46.61 6.23L46.61 6.23Q46.63 6.62 46.62 7.04L46.62 7.04L46.62 7.04Q46.61 7.45 46.56 7.86L46.56 7.86L46.56 7.86Q46.52 8.27 46.49 8.65L46.49 8.65L46.49 8.65Q46.45 9.03 46.44 9.35L46.44 9.35L46.51 9.30L46.51 9.30Q46.51 9.66 46.23 9.95L46.23 9.95L46.23 9.95Q45.96 10.23 45.65 10.36L45.65 10.36L45.65 10.36Q45.54 10.36 45.51 10.33L45.51 10.33L45.51 10.33Q45.36 10.53 45.16 10.68L45.16 10.68L45.16 10.68Q44.97 10.82 44.86 10.72L44.86 10.72L44.86 10.72Q44.79 10.16 44.79 9.60L44.79 9.60L44.79 9.60Q44.80 9.04 44.82 8.48L44.82 8.48L44.82 8.48Q44.84 7.92 44.85 7.36L44.85 7.36L44.85 7.36Q44.86 6.79 44.79 6.23L44.79 6.23L44.79 6.23Q44.73 5.87 44.63 5.66L44.63 5.66L44.63 5.66Q44.32 5.73 44.03 5.84L44.03 5.84L44.03 5.84Q43.74 5.95 43.54 6.05L43.54 6.05L43.54 6.05Q43.43 6.20 43.32 6.35L43.32 6.35L43.32 6.35Q43.20 6.50 43.09 6.64L43.09 6.64L43.09 6.64Q43.02 7.48 43.04 8.37L43.04 8.37L43.04 8.37Q43.05 9.27 43.20 10.04L43.20 10.04L43.20 10.04Q43.22 10.02 43.23 10.02L43.23 10.02L43.23 10.02Q43.25 10.01 43.26 10.00L43.26 10.00L43.26 10.00Q43.26 10.05 43.25 10.10L43.25 10.10L43.25 10.10Q43.25 10.15 43.25 10.19L43.25 10.19L43.25 10.19Q43.22 10.28 43.11 10.45L43.11 10.45L43.11 10.45Q42.99 10.63 42.85 10.77L42.85 10.77L42.85 10.77Q42.70 10.92 42.55 11.00L42.55 11.00L42.55 11.00Q42.41 11.09 42.32 11.00L42.32 11.00L42.32 11.00Q42.28 10.86 42.26 10.71L42.26 10.71L42.26 10.71Q42.24 10.56 42.21 10.40L42.21 10.40L42.21 10.40Q42.07 10.46 41.99 10.39L41.99 10.39L41.99 10.39Q41.96 10.02 41.96 9.65L41.96 9.65L41.96 9.65Q41.96 9.27 41.93 8.89L41.93 8.89L41.93 8.89Q41.87 7.97 41.80 7.07L41.80 7.07L41.80 7.07Q41.72 6.17 41.89 5.24L41.89 5.24ZM46.49 5.50L46.49 5.50L46.49 5.50Q46.48 5.60 46.50 5.61L46.50 5.61L46.50 5.61Q46.52 5.61 46.54 5.59L46.54 5.59L46.54 5.59Q46.56 5.56 46.56 5.53L46.56 5.53L46.56 5.53Q46.56 5.49 46.49 5.50ZM46.68 5.43L46.66 5.45L46.66 5.45Q46.68 5.45 46.68 5.44L46.68 5.44L46.68 5.44Q46.69 5.43 46.68 5.43L46.68 5.43ZM56.17 1.16L56.03 1.30L56.03 1.30Q56.28 1.43 56.41 1.48L56.41 1.48L56.41 1.48Q56.53 1.54 56.62 1.64L56.62 1.64L56.62 1.64Q56.70 1.75 56.78 1.96L56.78 1.96L56.78 1.96Q56.85 2.17 57.02 2.59L57.02 2.59L57.02 2.59Q57.06 2.70 57.11 2.81L57.11 2.81L57.11 2.81Q57.15 2.91 57.18 3.02L57.18 3.02L57.18 3.02Q57.43 3.53 57.55 4.09L57.55 4.09L57.55 4.09Q57.67 4.66 57.68 5.22L57.68 5.22L57.68 5.22Q57.89 5.92 57.95 6.60L57.95 6.60L57.95 6.60Q58.00 7.28 57.75 7.74L57.75 7.74L57.75 7.74Q57.71 7.83 57.61 8.02L57.61 8.02L57.61 8.02Q57.51 8.20 57.39 8.42L57.39 8.42L57.39 8.42Q57.27 8.64 57.13 8.86L57.13 8.86L57.13 8.86Q56.99 9.09 56.87 9.24L56.87 9.24L56.87 9.24Q57.01 9.48 57.11 9.69L57.11 9.69L57.11 9.69Q57.22 9.94 57.31 10.21L57.31 10.21L57.31 10.21Q57.40 10.47 57.53 10.71L57.53 10.71L57.53 10.71Q57.58 10.79 57.60 10.81L57.60 10.81L57.60 10.81Q57.58 10.82 57.57 10.83L57.57 10.83L57.57 10.83Q57.55 10.84 57.54 10.85L57.54 10.85L57.54 10.85Q57.51 10.98 57.40 11.14L57.40 11.14L57.40 11.14Q57.29 11.30 57.15 11.42L57.15 11.42L57.15 11.42Q57.01 11.55 56.87 11.62L56.87 11.62L56.87 11.62Q56.73 11.69 56.64 11.62L56.64 11.62L56.64 11.63L56.64 11.63Q56.63 11.61 56.62 11.60L56.62 11.60L56.62 11.60Q56.62 11.59 56.60 11.56L56.60 11.56L56.60 11.56Q56.45 11.33 56.23 10.93L56.23 10.93L56.23 10.93Q56.01 10.54 55.78 10.08L55.78 10.08L55.78 10.08Q55.62 10.19 55.46 10.29L55.46 10.29L55.46 10.29Q55.30 10.39 55.12 10.43L55.12 10.43L55.12 10.43Q54.96 10.47 54.81 10.49L54.81 10.49L54.81 10.49Q54.66 10.50 54.50 10.50L54.50 10.50L54.50 10.50Q53.89 10.63 53.28 10.61L53.28 10.61L53.28 10.61Q52.68 10.58 52.18 10.40L52.18 10.40L52.18 10.40Q51.81 10.29 51.54 10.00L51.54 10.00L51.54 10.00Q51.27 9.70 51.06 9.39L51.06 9.39L51.06 9.39Q50.93 9.21 50.83 9.04L50.83 9.04L50.83 9.04Q50.72 8.86 50.65 8.67L50.65 8.67L50.65 8.67Q50.36 8.12 50.27 7.48L50.27 7.48L50.27 7.48Q50.18 6.85 50.25 6.17L50.25 6.17L50.25 6.17Q50.33 5.50 50.55 4.84L50.55 4.84L50.55 4.84Q50.78 4.17 51.11 3.57L51.11 3.57L51.11 3.57Q51.30 3.25 51.55 2.97L51.55 2.97L51.55 2.97Q51.80 2.69 52.04 2.39L52.04 2.39L52.04 2.39Q52.18 2.23 52.43 2.01L52.43 2.01L52.43 2.01Q52.68 1.79 53.00 1.58L53.00 1.58L53.00 1.58Q53.31 1.37 53.65 1.20L53.65 1.20L53.65 1.20Q54.00 1.04 54.31 0.97L54.31 0.97L54.31 0.97Q54.64 0.80 54.96 0.75L54.96 0.75L54.96 0.75Q55.29 0.70 55.57 0.83L55.57 0.83L55.57 0.83Q55.72 0.91 55.87 0.99L55.87 0.99L55.87 0.99Q56.01 1.08 56.17 1.16L56.17 1.16ZM56.77 7.50L56.77 7.50L56.77 7.50Q56.80 7.21 56.76 6.68L56.76 6.68L56.76 6.68Q56.71 6.15 56.62 5.52L56.62 5.52L56.62 5.52Q56.35 4.77 55.92 4.11L55.92 4.11L55.92 4.11Q55.48 3.44 54.89 3.04L54.89 3.04L54.89 3.04Q54.70 2.91 54.47 2.85L54.47 2.85L54.47 2.85Q54.24 2.79 54.00 2.72L54.00 2.72L54.00 2.72Q53.68 2.77 53.36 2.90L53.36 2.90L53.36 2.90Q53.05 3.02 52.79 3.14L52.79 3.14L52.79 3.14Q52.39 3.33 52.10 3.67L52.10 3.67L52.10 3.67Q51.81 4.02 51.62 4.45L51.62 4.45L51.62 4.45Q51.59 4.83 51.61 5.21L51.61 5.21L51.61 5.21Q51.63 5.60 51.65 5.89L51.65 5.89L51.65 5.89Q51.66 6.30 51.67 6.68L51.67 6.68L51.67 6.68Q51.67 7.06 51.72 7.39L51.72 7.39L51.72 7.39Q51.76 7.73 51.86 8.03L51.86 8.03L51.86 8.03Q51.97 8.33 52.16 8.60L52.16 8.60L52.16 8.60Q52.49 8.88 52.89 9.09L52.89 9.09L52.89 9.09Q53.30 9.31 53.83 9.45L53.83 9.45L53.83 9.45Q54.17 9.55 54.63 9.53L54.63 9.53L54.63 9.53Q55.09 9.52 55.45 9.45L55.45 9.45L55.45 9.45Q55.27 9.06 55.11 8.67L55.11 8.67L55.11 8.67Q54.95 8.29 54.84 7.93L54.84 7.93L54.84 7.93Q54.73 7.57 54.67 7.28L54.67 7.28L54.67 7.28Q54.61 6.99 54.66 6.78L54.66 6.78L54.66 6.78Q54.70 6.66 54.80 6.52L54.80 6.52L54.80 6.52Q54.89 6.37 55.01 6.24L55.01 6.24L55.01 6.24Q55.13 6.12 55.27 6.04L55.27 6.04L55.27 6.04Q55.41 5.96 55.55 5.99L55.55 5.99L55.55 5.99Q55.65 6.03 55.67 6.12L55.67 6.12L55.67 6.12Q55.69 6.20 55.69 6.29L55.69 6.29L55.69 6.29Q55.69 6.36 55.69 6.41L55.69 6.41L55.69 6.41Q55.69 6.47 55.75 6.45L55.75 6.45L55.75 6.45Q55.80 7.08 56.03 7.62L56.03 7.62L56.03 7.62Q56.27 8.15 56.56 8.67L56.56 8.67L56.56 8.67Q56.66 8.39 56.70 8.07L56.70 8.07L56.70 8.07Q56.74 7.76 56.77 7.50ZM53.76 1.85L53.76 1.85L53.76 1.85Q53.44 1.99 53.14 2.21L53.14 2.21L53.14 2.21Q52.85 2.44 52.58 2.70L52.58 2.70L52.58 2.70Q52.64 2.67 52.68 2.63L52.68 2.63L52.68 2.63Q52.72 2.59 52.78 2.56L52.78 2.56L52.78 2.56Q53.06 2.37 53.52 2.16L53.52 2.16L53.52 2.16Q53.97 1.96 54.46 1.85L54.46 1.85L54.59 1.71L54.59 1.71Q54.31 1.67 54.01 1.75L54.01 1.75L53.94 1.83L53.94 1.83Q53.83 1.83 53.76 1.85ZM62.65 6.72L62.76 6.61L62.76 6.61Q62.73 6.34 62.66 6.03L62.66 6.03L62.66 6.03Q62.59 5.71 62.65 5.45L62.65 5.45L62.65 5.42L62.66 5.40L62.66 5.40Q62.66 5.38 62.68 5.36L62.68 5.36L62.68 5.36Q62.72 5.25 62.82 5.11L62.82 5.11L62.82 5.11Q62.92 4.97 63.03 4.84L63.03 4.84L63.03 4.84Q63.15 4.72 63.29 4.64L63.29 4.64L63.29 4.64Q63.43 4.56 63.57 4.59L63.57 4.59L63.57 4.59Q63.66 4.79 63.71 5.00L63.71 5.00L63.71 5.00Q63.77 5.21 63.81 5.43L63.81 5.43L63.81 5.43Q63.88 5.39 63.94 5.39L63.94 5.39L63.94 5.39Q64.01 5.39 64.04 5.46L64.04 5.46L64.05 5.45L64.05 5.45Q64.05 5.46 64.04 5.46L64.04 5.46L64.04 5.46Q64.04 5.46 64.04 5.47L64.04 5.47L64.05 5.49L64.05 5.49Q64.08 5.85 64.06 6.21L64.06 6.21L64.06 6.21Q64.05 6.57 64.05 6.93L64.05 6.93L64.05 6.93Q64.16 7.74 64.22 8.54L64.22 8.54L64.22 8.54Q64.29 9.34 64.18 10.15L64.18 10.15L64.18 10.16L64.18 10.18L64.18 10.18Q64.16 10.18 64.16 10.19L64.16 10.19L64.16 10.19Q64.12 10.29 64.01 10.45L64.01 10.45L64.01 10.45Q63.90 10.61 63.76 10.75L63.76 10.75L63.76 10.75Q63.62 10.89 63.48 10.96L63.48 10.96L63.48 10.96Q63.34 11.03 63.25 10.95L63.25 10.95L63.25 10.95Q63.22 10.79 63.22 10.65L63.22 10.65L63.22 10.65Q63.21 10.51 63.20 10.37L63.20 10.37L63.20 10.37Q63.17 10.37 63.15 10.38L63.15 10.38L63.15 10.38Q63.14 10.39 63.13 10.39L63.13 10.39L63.11 10.40L63.11 10.40Q62.97 10.37 62.92 10.36L62.92 10.36L62.92 10.36Q62.76 10.47 62.66 10.50L62.66 10.50L62.66 10.50Q62.55 10.53 62.58 10.35L62.58 10.35L62.58 10.33L62.58 10.33Q62.45 10.35 62.07 10.41L62.07 10.41L62.07 10.41Q61.68 10.47 61.22 10.53L61.22 10.53L61.22 10.53Q60.76 10.58 60.33 10.60L60.33 10.60L60.33 10.60Q59.89 10.61 59.70 10.54L59.70 10.54L59.70 10.54Q59.63 10.56 59.54 10.56L59.54 10.56L59.54 10.56Q59.46 10.57 59.39 10.57L59.39 10.57L59.39 10.57Q59.33 10.51 59.36 10.43L59.36 10.43L59.36 10.43Q59.37 10.40 59.38 10.37L59.38 10.37L59.38 10.37Q59.39 10.35 59.40 10.32L59.40 10.32L59.40 10.32Q59.19 10.26 59.07 10.08L59.07 10.08L59.07 10.08Q58.94 9.90 58.86 9.68L58.86 9.68L58.86 9.68Q58.77 9.46 58.74 9.23L58.74 9.23L58.74 9.23Q58.70 9.00 58.69 8.83L58.69 8.83L58.69 8.83Q58.60 8.06 58.69 7.28L58.69 7.28L58.69 7.28Q58.62 6.92 58.59 6.55L58.59 6.55L58.59 6.55Q58.56 6.19 58.59 5.80L58.59 5.80L58.59 5.78L58.59 5.78Q58.59 5.75 58.60 5.74L58.60 5.74L58.60 5.74Q58.60 5.73 58.60 5.70L58.60 5.70L58.60 5.70Q58.65 5.59 58.74 5.45L58.74 5.45L58.74 5.45Q58.83 5.31 58.95 5.18L58.95 5.18L58.95 5.18Q59.07 5.05 59.20 4.98L59.20 4.98L59.20 4.98Q59.33 4.90 59.47 4.91L59.47 4.91L59.47 4.91Q59.71 4.63 60.06 4.49L60.06 4.49L60.06 4.49Q60.13 4.47 60.18 4.46L60.18 4.46L60.18 4.46Q60.23 4.45 60.26 4.55L60.26 4.55L60.26 4.55Q60.27 4.68 60.23 4.82L60.23 4.82L60.23 4.82Q60.20 4.97 60.16 5.12L60.16 5.12L60.16 5.12Q60.33 4.98 60.45 4.96L60.45 4.96L60.45 4.96Q60.58 4.93 60.52 5.17L60.52 5.17L60.52 5.17Q60.40 5.52 60.36 5.94L60.36 5.94L60.36 5.94Q60.33 6.37 60.35 6.82L60.35 6.82L60.35 6.82Q60.38 7.28 60.45 7.72L60.45 7.72L60.45 7.72Q60.52 8.16 60.59 8.54L60.59 8.54L60.59 8.54Q60.59 8.54 60.62 8.63L60.62 8.63L60.62 8.63Q60.65 8.72 60.70 8.85L60.70 8.85L60.70 8.85Q60.75 8.97 60.80 9.12L60.80 9.12L60.80 9.12Q60.86 9.27 60.91 9.39L60.91 9.39L60.91 9.39Q61.36 9.34 61.84 9.35L61.84 9.35L61.84 9.35Q62.33 9.35 62.73 9.32L62.73 9.32L62.73 9.32Q62.80 9.02 62.85 8.71L62.85 8.71L62.85 8.71Q62.90 8.41 62.92 8.11L62.92 8.11L62.92 8.11Q62.89 7.88 62.87 7.67L62.87 7.67L62.87 7.67Q62.86 7.45 62.83 7.25L62.83 7.25L62.83 7.25Q62.80 7.13 62.76 6.99L62.76 6.99L62.76 6.99Q62.72 6.86 62.65 6.72L62.65 6.72ZM68.89 4.09L68.89 4.09L68.89 4.09Q68.98 4.09 69.22 4.12L69.22 4.12L69.22 4.12Q69.45 4.14 69.73 4.21L69.73 4.21L69.73 4.21Q70 4.28 70.23 4.41L70.23 4.41L70.23 4.41Q70.46 4.54 70.50 4.72L70.50 4.72L70.50 4.72Q70.64 4.87 70.74 5.08L70.74 5.08L70.74 5.08Q71.04 5.70 70.87 6.17L70.87 6.17L70.87 6.17Q70.94 6.19 71.00 6.20L71.00 6.20L71.00 6.20Q71.06 6.22 71.12 6.24L71.12 6.24L71.12 6.24Q71.15 6.37 71.08 6.50L71.08 6.50L71.08 6.50Q71.02 6.62 70.92 6.73L70.92 6.73L70.92 6.73Q70.81 6.85 70.69 6.94L70.69 6.94L70.69 6.94Q70.56 7.03 70.48 7.08L70.48 7.08L70.48 7.08Q70.24 7.22 69.90 7.25L69.90 7.25L69.90 7.25Q69.57 7.27 69.24 7.27L69.24 7.27L69.24 7.27Q68.66 7.34 68.10 7.46L68.10 7.46L68.10 7.46Q67.55 7.59 66.99 7.73L66.99 7.73L66.99 7.73Q66.72 7.80 66.47 7.88L66.47 7.88L66.47 7.88Q66.21 7.97 65.94 8.04L65.94 8.04L65.94 8.04Q66.19 8.69 66.74 9.13L66.74 9.13L66.74 9.13Q67.23 9.41 67.84 9.48L67.84 9.48L67.84 9.48Q68.46 9.55 69.03 9.51L69.03 9.51L69.50 9.38L69.50 9.38Q69.52 9.37 69.47 9.38L69.47 9.38L69.47 9.38Q69.43 9.39 69.36 9.41L69.36 9.41L69.36 9.41Q69.29 9.42 69.24 9.44L69.24 9.44L69.24 9.44Q69.19 9.45 69.23 9.44L69.23 9.44L69.23 9.44Q69.61 9.34 70.01 9.25L70.01 9.25L70.01 9.25Q70.41 9.17 70.78 9.03L70.78 9.03L70.78 9.03Q70.90 8.95 71.02 8.86L71.02 8.86L71.02 8.86Q71.13 8.76 71.29 8.71L71.29 8.71L71.29 8.71Q71.33 8.69 71.38 8.69L71.38 8.69L71.38 8.69Q71.43 8.68 71.47 8.69L71.47 8.69L71.47 8.69Q71.50 8.81 71.50 8.86L71.50 8.86L71.50 8.86Q71.43 9.11 71.23 9.30L71.23 9.30L71.23 9.30Q71.04 9.49 70.84 9.63L70.84 9.63L70.84 9.63Q70.57 9.77 70.29 9.88L70.29 9.88L70.29 9.88Q70.28 9.90 70.27 9.90L70.27 9.90L70.27 9.90Q69.94 10.09 69.57 10.20L69.57 10.20L69.57 10.20Q69.19 10.30 68.82 10.36L68.82 10.36L68.82 10.36Q68.49 10.42 68.10 10.44L68.10 10.44L68.10 10.44Q67.35 10.57 66.79 10.48L66.79 10.48L66.79 10.48Q66.22 10.39 65.80 10.01L65.80 10.01L65.80 10.01Q65.52 9.84 65.32 9.60L65.32 9.60L65.32 9.60Q65.11 9.35 65.02 9.02L65.02 9.02L65.02 9.02Q64.97 8.92 64.97 8.83L64.97 8.83L64.97 8.83Q64.97 8.74 64.99 8.64L64.99 8.64L64.99 8.64Q64.89 8.37 64.81 8.02L64.81 8.02L64.81 8.02Q64.74 7.77 64.81 7.50L64.81 7.50L64.81 7.50Q64.89 7.24 64.93 6.96L64.93 6.96L64.93 6.96Q64.97 6.66 65.15 6.37L65.15 6.37L65.15 6.37Q65.32 6.08 65.52 5.82L65.52 5.82L65.52 5.82Q65.87 5.36 66.23 5.05L66.23 5.05L66.23 5.05Q66.60 4.75 67.00 4.55L67.00 4.55L67.00 4.55Q67.40 4.35 67.86 4.25L67.86 4.25L67.86 4.25Q68.33 4.14 68.89 4.09ZM65.90 6.82L65.90 6.82L65.90 6.82Q65.90 6.92 65.91 7L65.91 7L65.91 7Q65.93 7.08 65.95 7.18L65.95 7.18L65.95 7.18Q66.19 7.07 66.44 6.99L66.44 6.99L66.44 6.99Q66.70 6.90 66.96 6.83L66.96 6.83L66.96 6.83Q67.49 6.66 68.03 6.54L68.03 6.54L68.03 6.54Q68.57 6.43 68.94 6.33L68.94 6.33L68.94 6.33Q69.17 6.26 69.41 6.20L69.41 6.20L69.41 6.20Q69.65 6.15 69.89 6.10L69.89 6.10L69.89 6.10Q69.87 6.06 69.86 6.03L69.86 6.03L69.86 6.03Q69.85 5.99 69.83 5.95L69.83 5.95L69.83 5.95Q69.66 5.59 69.36 5.40L69.36 5.40L69.36 5.40Q69.05 5.21 68.64 5.18L68.64 5.18L68.64 5.18Q68.22 5.14 67.81 5.26L67.81 5.26L67.81 5.26Q67.40 5.38 67.03 5.61L67.03 5.61L67.03 5.61Q66.67 5.84 66.37 6.15L66.37 6.15L66.37 6.15Q66.08 6.45 65.90 6.82ZM66.08 5.82L66.08 5.82L66.08 5.82Q66.26 5.66 66.44 5.51L66.44 5.51L66.44 5.51Q66.63 5.36 66.82 5.22L66.82 5.22L66.82 5.22Q66.37 5.40 66.15 5.73L66.15 5.73L66.15 5.73Q66.12 5.75 66.11 5.77L66.11 5.77L66.11 5.77Q66.11 5.80 66.08 5.82ZM76.15 8.79L76.41 8.61L76.41 8.61Q76.40 8.60 76.31 8.48L76.31 8.48L76.31 8.48Q76.22 8.36 76.22 8.34L76.22 8.34L76.22 8.34Q75.91 8.27 75.59 8.21L75.59 8.21L75.59 8.21Q75.26 8.15 75.00 8.09L75.00 8.09L75.00 8.09Q74.73 8.02 74.56 7.98L74.56 7.98L74.56 7.98Q74.38 7.94 74.35 7.92L74.35 7.92L74.35 7.92Q74.28 7.87 74.30 7.78L74.30 7.78L74.30 7.78Q74.33 7.70 74.40 7.60L74.40 7.60L74.40 7.60Q74.20 7.59 74.00 7.57L74.00 7.57L74.00 7.57Q73.81 7.56 73.61 7.53L73.61 7.53L73.60 7.56L73.60 7.56Q73.54 7.55 73.50 7.54L73.50 7.54L73.50 7.54Q73.46 7.53 73.40 7.52L73.40 7.52L73.40 7.52Q73.25 7.50 73.10 7.49L73.10 7.49L73.10 7.49Q72.95 7.48 72.80 7.45L72.80 7.45L72.80 7.45Q72.72 7.38 72.77 7.25L72.77 7.25L72.77 7.25Q72.83 7.13 72.95 7L72.95 7L72.95 7Q72.86 6.99 72.77 6.98L72.77 6.98L72.77 6.98Q72.69 6.97 72.60 6.99L72.60 6.99L72.60 6.99Q72.42 7.03 72.20 7.03L72.20 7.03L72.20 7.03Q72.17 7.03 72.13 7.01L72.13 7.01L72.13 7.01Q72.10 6.99 72.11 7L72.11 7L72.11 7Q72.04 6.93 72.07 6.87L72.07 6.87L72.07 6.87Q72.10 6.80 72.13 6.73L72.13 6.73L72.13 6.73Q72.24 6.51 72.39 6.36L72.39 6.36L72.39 6.36Q72.55 6.22 72.74 6.10L72.74 6.10L72.74 6.10Q72.70 6.03 72.72 5.98L72.72 5.98L72.51 6.02L72.51 6.02Q72.35 6.05 72.37 5.96L72.37 5.96L72.37 5.96Q72.38 5.88 72.44 5.77L72.44 5.77L72.44 5.77Q72.73 5.26 73.25 4.96L73.25 4.96L73.25 4.96Q73.78 4.66 74.40 4.50L74.40 4.50L74.40 4.50Q75.03 4.34 75.66 4.30L75.66 4.30L75.66 4.30Q76.30 4.27 76.83 4.31L76.83 4.31L76.83 4.31Q77.03 4.33 77.20 4.40L77.20 4.40L77.20 4.40Q77.35 4.40 77.48 4.42L77.48 4.42L77.48 4.42Q77.62 4.44 77.71 4.49L77.71 4.49L77.71 4.49Q77.87 4.51 78.02 4.53L78.02 4.53L78.02 4.53Q78.16 4.55 78.27 4.62L78.27 4.62L78.27 4.62Q78.30 4.73 78.25 4.84L78.25 4.84L78.25 4.84Q78.19 4.94 78.11 5.04L78.11 5.04L78.11 5.04Q78.02 5.14 77.93 5.21L77.93 5.21L77.93 5.21Q77.84 5.29 77.77 5.36L77.77 5.36L77.77 5.36Q77.55 5.52 77.30 5.57L77.30 5.57L77.30 5.57Q77.06 5.63 76.80 5.64L76.80 5.64L76.64 5.80L76.64 5.80Q76.59 5.74 76.54 5.63L76.54 5.63L76.54 5.63Q76.30 5.61 76.07 5.59L76.07 5.59L76.07 5.59Q75.84 5.57 75.61 5.56L75.61 5.56L75.61 5.56Q75.31 5.61 75.03 5.68L75.03 5.68L75.03 5.68Q75.03 5.77 75.03 5.84L75.03 5.84L75.03 5.84Q75.04 5.92 75.05 6.01L75.05 6.01L75.05 6.01Q75.38 6.08 75.68 6.15L75.68 6.15L75.68 6.15Q75.99 6.23 76.26 6.29L76.26 6.29L76.26 6.29Q76.59 6.40 76.91 6.46L76.91 6.46L76.91 6.46Q77.22 6.52 77.49 6.59L77.49 6.59L77.49 6.59Q77.76 6.66 77.96 6.75L77.96 6.75L77.96 6.75Q78.16 6.85 78.29 7.01L78.29 7.01L78.29 7.01Q78.54 7.25 78.60 7.62L78.60 7.62L78.60 7.62Q78.67 7.98 78.55 8.32L78.55 8.32L78.55 8.32Q78.67 8.39 78.54 8.56L78.54 8.56L78.54 8.56Q78.41 8.74 78.22 8.89L78.22 8.89L78.22 8.89Q78.04 9.13 77.80 9.30L77.80 9.30L77.80 9.30Q77.57 9.46 77.29 9.59L77.29 9.59L77.29 9.59Q76.79 9.94 76.15 10.18L76.15 10.18L76.15 10.18Q75.66 10.40 75.15 10.56L75.15 10.56L75.15 10.56Q74.51 10.81 73.91 10.95L73.91 10.95L73.91 10.95Q73.30 11.09 72.94 10.93L72.94 10.93L72.94 10.93Q72.88 10.88 72.91 10.81L72.91 10.81L72.91 10.81Q72.95 10.64 73.01 10.56L73.01 10.56L73.01 10.56Q72.77 10.63 72.53 10.70L72.53 10.70L72.53 10.70Q72.30 10.78 72.13 10.81L72.13 10.81L72.13 10.81Q72.06 10.85 72.06 10.82L72.06 10.82L72.06 10.82Q72.02 10.84 71.97 10.84L71.97 10.84L71.97 10.84Q71.95 10.84 71.92 10.84L71.92 10.84L71.92 10.84Q71.86 10.78 71.88 10.70L71.88 10.70L71.88 10.70Q71.90 10.63 71.95 10.54L71.95 10.54L71.95 10.54Q72.00 10.46 72.06 10.39L72.06 10.39L72.06 10.39Q72.13 10.32 72.17 10.28L72.17 10.28L72.46 10.02L72.46 10.02Q72.34 9.94 72.44 9.72L72.44 9.72L72.44 9.72Q72.53 9.51 72.74 9.30L72.74 9.30L72.74 9.30Q72.94 9.10 73.20 8.98L73.20 8.98L73.20 8.98Q73.46 8.86 73.67 8.99L73.67 8.99L73.67 8.99Q73.61 9.04 73.56 9.09L73.56 9.09L73.56 9.09Q73.51 9.14 73.47 9.20L73.47 9.20L73.47 9.20Q73.58 9.24 73.72 9.24L73.72 9.24L73.72 9.24Q73.88 9.24 73.98 9.24L73.98 9.24L73.98 9.24Q74.23 9.25 74.49 9.25L74.49 9.25L74.49 9.25Q74.75 9.24 75.00 9.23L75.00 9.23L75.00 9.23Q75.14 9.16 75.28 9.16L75.28 9.16L75.28 9.16Q75.42 9.16 75.56 9.13L75.56 9.13L75.56 9.13Q75.70 9.11 75.84 9.04L75.84 9.04L75.84 9.04Q75.99 8.97 76.15 8.79L76.15 8.79ZM83.10 4.14L83.10 4.14L83.10 4.14Q83.10 4.23 83.11 4.30L83.11 4.30L83.11 4.30Q83.12 4.38 83.12 4.47L83.12 4.47L83.12 4.47Q83.15 4.63 83.16 4.81L83.16 4.81L83.16 4.81Q83.17 4.98 83.20 5.15L83.20 5.15L83.20 5.15Q83.44 5.12 83.67 5.11L83.67 5.11L83.67 5.11Q83.90 5.10 84.14 5.11L84.14 5.11L84.14 5.11Q84.25 5.10 84.34 5.10L84.34 5.10L84.34 5.10Q84.43 5.10 84.55 5.08L84.55 5.08L84.50 5.12L84.50 5.12Q84.63 5.14 84.76 5.14L84.76 5.14L84.76 5.14Q84.88 5.15 85.01 5.18L85.01 5.18L85.09 5.18L85.06 5.21L85.08 5.21L85.09 5.21L85.09 5.21Q85.23 5.25 85.16 5.38L85.16 5.38L85.16 5.38Q85.09 5.52 84.94 5.67L84.94 5.67L84.94 5.67Q84.78 5.82 84.62 5.96L84.62 5.96L84.62 5.96Q84.45 6.09 84.38 6.12L84.38 6.12L84.38 6.12Q84.36 6.12 84.35 6.13L84.35 6.13L84.35 6.13Q84.34 6.13 84.32 6.13L84.32 6.13L84.25 6.13L84.25 6.13Q84.11 6.15 83.99 6.15L83.99 6.15L83.99 6.15Q83.86 6.16 83.73 6.16L83.73 6.16L83.73 6.16Q83.62 6.17 83.52 6.18L83.52 6.18L83.52 6.18Q83.43 6.19 83.33 6.20L83.33 6.20L83.33 6.20Q83.37 6.64 83.40 7.06L83.40 7.06L83.40 7.06Q83.43 7.49 83.41 7.91L83.41 7.91L83.41 7.91Q83.40 8.25 83.39 8.68L83.39 8.68L83.39 8.68Q83.38 9.11 83.38 9.52L83.38 9.52L83.38 9.52Q83.41 9.74 83.43 9.96L83.43 9.96L83.43 9.96Q83.44 10.18 83.44 10.39L83.44 10.39L83.44 10.39Q83.43 10.47 83.31 10.63L83.31 10.63L83.31 10.63Q83.20 10.79 83.06 10.94L83.06 10.94L83.06 10.94Q82.92 11.09 82.78 11.18L82.78 11.18L82.78 11.18Q82.63 11.27 82.53 11.20L82.53 11.20L82.53 11.20Q82.53 11.20 82.52 11.21L82.52 11.21L82.52 11.19L82.52 11.19Q82.50 11.12 82.50 11.07L82.50 11.07L82.50 11.07Q82.49 11.02 82.47 10.96L82.47 10.96L82.47 10.96Q82.39 11.06 82.30 11.15L82.30 11.15L82.30 11.15Q82.21 11.24 82.12 11.30L82.12 11.30L82.12 11.30Q82.03 11.35 81.95 11.38L81.95 11.38L81.95 11.38Q81.87 11.40 81.82 11.34L81.82 11.34L81.82 11.34Q81.65 10.89 81.64 10.41L81.64 10.41L81.64 10.41Q81.63 9.93 81.62 9.45L81.62 9.45L81.62 9.45Q81.58 8.69 81.56 7.96L81.56 7.96L81.56 7.96Q81.54 7.22 81.55 6.47L81.55 6.47L81.55 6.47Q81.44 6.50 81.35 6.51L81.35 6.51L81.35 6.51Q81.26 6.52 81.14 6.54L81.14 6.54L81.13 6.54L80.88 6.83L80.88 6.83Q80.60 6.83 80.30 6.86L80.30 6.86L80.30 6.86Q80.01 6.89 79.74 6.82L79.74 6.82L79.74 6.82Q79.67 6.76 79.72 6.62L79.72 6.62L79.72 6.62Q79.70 6.62 79.70 6.62L79.70 6.62L79.70 6.62Q79.70 6.61 79.72 6.61L79.72 6.61L79.72 6.61Q79.67 6.58 79.67 6.55L79.67 6.55L79.67 6.55Q79.65 6.55 79.63 6.57L79.63 6.57L79.63 6.57Q79.62 6.58 79.59 6.58L79.59 6.58L79.59 6.58Q79.49 6.59 79.47 6.57L79.47 6.57L79.47 6.57Q79.45 6.55 79.46 6.45L79.46 6.45L79.46 6.45Q79.58 6.01 79.87 5.83L79.87 5.83L79.87 5.83Q80.16 5.66 80.53 5.59L80.53 5.59L80.53 5.59Q80.78 5.50 81.04 5.43L81.04 5.43L81.04 5.43Q81.30 5.36 81.56 5.31L81.56 5.31L81.56 5.31Q81.56 5.12 81.56 4.96L81.56 4.96L81.56 4.96Q81.56 4.77 81.59 4.61L81.59 4.61L81.59 4.61Q81.61 4.49 81.73 4.30L81.73 4.30L81.73 4.30Q81.86 4.12 82.03 3.96L82.03 3.96L82.03 3.96Q82.10 3.70 82.36 3.48L82.36 3.48L82.36 3.48Q82.61 3.26 82.85 3.19L82.85 3.19L82.85 3.19Q82.95 3.21 83.00 3.30L83.00 3.30L83.00 3.30Q83.05 3.39 83.07 3.52L83.07 3.52L83.07 3.52Q83.09 3.65 83.09 3.79L83.09 3.79L83.09 3.79Q83.09 3.93 83.09 4.06L83.09 4.06L83.09 4.06Q83.10 4.09 83.10 4.14Z"></path></g><defs data-v-423bf9ae=""><linearGradient data-v-423bf9ae="" gradientTransform="rotate(25)" id="ca7da316-5012-4b05-ba49-d0157aecde57" x1="0%" y1="0%" x2="100%" y2="0%"><stop data-v-423bf9ae="" offset="0%" style="stop-color: rgb(45, 79, 176); stop-opacity: 1;"></stop><stop data-v-423bf9ae="" offset="100%" style="stop-color: rgb(193, 33, 166); stop-opacity: 1;"></stop></linearGradient></defs><g data-v-423bf9ae="" id="603f059a-d047-4ed5-b248-b44fe3d917b3" transform="matrix(2.8125,0,0,2.8125,0,0)" stroke="none" fill="url(#ca7da316-5012-4b05-ba49-d0157aecde57)"><path d="M29.625 1l-3.099 3.172H4.054v23.657h22.472L29.625 31H1V1h28.625M32 0H0v32h32l-5.054-5.172H5.054V5.172h21.893L32 0z"></path><path d="M21.038 10.962v10.076H10.962V10.962h10.076m1-1H9.962v12.076h12.076V9.962z"></path></g><!----></svg>