<?xml version="1.0" standalone="no"?>
<!DOCTYPE svg PUBLIC "-//W3C//DTD SVG 20010904//EN"
 "http://www.w3.org/TR/2001/REC-SVG-20010904/DTD/svg10.dtd">
<svg version="1.0" xmlns="http://www.w3.org/2000/svg"
 width="2008.000000pt" height="2048.000000pt" viewBox="0 0 2008.000000 2048.000000"
 preserveAspectRatio="xMidYMid meet">

<g transform="translate(0.000000,2048.000000) scale(0.100000,-0.100000)"
fill="#000000" stroke="none">
<path d="M9858 20470 c-1009 -41 -1939 -211 -2878 -526 -1776 -596 -3364
-1685 -4583 -3142 -466 -558 -877 -1173 -1212 -1813 l-83 -159 1701 -1320
1701 -1320 41 118 c202 570 514 1150 887 1647 913 1218 2216 2048 3668 2339
878 175 1852 141 2715 -95 345 -94 639 -206 980 -374 471 -232 879 -508 1271
-861 l91 -82 1464 1464 1464 1465 -42 37 c-215 191 -350 309 -459 398 -1046
855 -2225 1476 -3494 1839 -725 208 -1461 330 -2245 374 -261 15 -759 20 -987
11z"/>
<path d="M10240 10120 l0 -1980 2755 0 c2456 0 2755 -2 2755 -15 0 -28 -50
-249 -86 -378 -292 -1060 -947 -1984 -1858 -2621 l-105 -73 32 -24 c31 -22
568 -439 1432 -1109 231 -179 530 -412 665 -516 410 -319 815 -633 1006 -781
l182 -141 208 206 c471 469 841 920 1197 1462 866 1319 1401 2878 1577 4595
70 692 80 1543 24 2220 -27 333 -75 721 -126 1013 l-21 122 -4819 0 -4818 0 0
-1980z"/>
</g>
</svg>
